<svg xmlns="http://www.w3.org/2000/svg" xmlns:xlink="http://www.w3.org/1999/xlink" width="1123" zoomAndPan="magnify" viewBox="0 0 842.25 595.499986" height="794" preserveAspectRatio="xMidYMid meet" version="1.0"><defs><clipPath id="01a184f727"><path d="M 95 70.828125 L 568 70.828125 L 568 381 L 95 381 Z M 95 70.828125 " clip-rule="nonzero"/></clipPath><clipPath id="1e8b28e93c"><path d="M 59.496094 377 L 782.125 377 L 782.125 423 L 59.496094 423 Z M 59.496094 377 " clip-rule="nonzero"/></clipPath><clipPath id="8d6551f5b2"><path d="M 545 402 L 667 402 L 667 524.34375 L 545 524.34375 Z M 545 402 " clip-rule="nonzero"/></clipPath><clipPath id="38c699beb9"><path d="M 174 402 L 297 402 L 297 524.34375 L 174 524.34375 Z M 174 402 " clip-rule="nonzero"/></clipPath></defs><path fill="#000000" d="M 759.058594 308.109375 L 759.058594 380.09375 L 561.265625 380.09375 L 561.265625 171.84375 L 638.671875 171.84375 C 646.039062 171.84375 653.003906 175.195312 657.59375 180.953125 Z M 759.058594 308.109375 " fill-opacity="1" fill-rule="nonzero"/><path fill="#fff6f3" d="M 702.222656 275.988281 L 588.464844 275.988281 C 583.171875 275.988281 578.878906 271.695312 578.878906 266.402344 L 578.878906 191.773438 C 578.878906 186.136719 583.449219 181.566406 589.085938 181.566406 L 631.757812 181.566406 C 637.34375 181.566406 642.625 184.109375 646.105469 188.472656 L 707.382812 265.265625 C 710.832031 269.59375 707.753906 275.992188 702.222656 275.992188 Z M 702.222656 275.988281 " fill-opacity="1" fill-rule="nonzero"/><g clip-path="url(#01a184f727)"><path fill="#fe9900" d="M 567.976562 95.113281 L 567.976562 380.089844 L 95.625 380.089844 L 95.625 95.113281 C 95.625 81.742188 106.460938 70.902344 119.828125 70.902344 L 543.765625 70.902344 C 557.132812 70.902344 567.972656 81.742188 567.972656 95.113281 Z M 567.976562 95.113281 " fill-opacity="1" fill-rule="nonzero"/></g><g clip-path="url(#1e8b28e93c)"><path fill="#000000" d="M 782.140625 400.28125 C 782.140625 406.441406 779.640625 412.019531 775.601562 416.058594 C 771.566406 420.09375 765.988281 422.597656 759.828125 422.597656 L 663.800781 422.597656 C 651.003906 404.527344 629.9375 392.734375 606.117188 392.734375 C 582.300781 392.734375 561.234375 404.527344 548.4375 422.597656 L 293.203125 422.597656 C 280.40625 404.527344 259.339844 392.734375 235.519531 392.734375 C 211.703125 392.734375 190.636719 404.527344 177.839844 422.597656 L 81.8125 422.597656 C 69.492188 422.597656 59.503906 412.605469 59.503906 400.285156 C 59.503906 394.125 62.003906 388.546875 66.042969 384.511719 C 70.078125 380.472656 75.652344 377.972656 81.816406 377.972656 L 759.835938 377.972656 C 772.15625 377.972656 782.144531 387.960938 782.144531 400.28125 Z M 782.140625 400.28125 " fill-opacity="1" fill-rule="nonzero"/></g><g clip-path="url(#8d6551f5b2)"><path fill="#fe9900" d="M 666.984375 463.378906 C 666.984375 465.375 666.886719 467.363281 666.691406 469.347656 C 666.496094 471.332031 666.203125 473.300781 665.8125 475.253906 C 665.425781 477.210938 664.941406 479.144531 664.363281 481.050781 C 663.785156 482.957031 663.113281 484.832031 662.351562 486.675781 C 661.585938 488.515625 660.738281 490.316406 659.796875 492.074219 C 658.855469 493.832031 657.832031 495.539062 656.726562 497.199219 C 655.617188 498.855469 654.433594 500.453125 653.167969 501.996094 C 651.902344 503.539062 650.566406 505.011719 649.15625 506.421875 C 647.746094 507.832031 646.273438 509.167969 644.730469 510.433594 C 643.191406 511.699219 641.59375 512.882812 639.933594 513.992188 C 638.277344 515.101562 636.570312 516.125 634.8125 517.0625 C 633.054688 518.003906 631.253906 518.855469 629.414062 519.617188 C 627.570312 520.378906 625.695312 521.050781 623.789062 521.628906 C 621.882812 522.207031 619.949219 522.691406 617.996094 523.082031 C 616.039062 523.46875 614.070312 523.761719 612.085938 523.957031 C 610.105469 524.152344 608.117188 524.25 606.121094 524.25 C 604.128906 524.25 602.140625 524.152344 600.15625 523.957031 C 598.171875 523.761719 596.203125 523.46875 594.25 523.082031 C 592.292969 522.691406 590.363281 522.207031 588.457031 521.628906 C 586.546875 521.050781 584.671875 520.378906 582.832031 519.617188 C 580.988281 518.855469 579.191406 518.003906 577.433594 517.0625 C 575.675781 516.125 573.96875 515.101562 572.308594 513.992188 C 570.652344 512.882812 569.054688 511.699219 567.511719 510.433594 C 565.972656 509.167969 564.496094 507.832031 563.085938 506.421875 C 561.675781 505.011719 560.339844 503.539062 559.074219 501.996094 C 557.8125 500.453125 556.625 498.855469 555.519531 497.199219 C 554.410156 495.539062 553.386719 493.832031 552.449219 492.074219 C 551.507812 490.316406 550.65625 488.515625 549.894531 486.675781 C 549.132812 484.832031 548.460938 482.957031 547.882812 481.050781 C 547.304688 479.144531 546.820312 477.210938 546.429688 475.253906 C 546.042969 473.300781 545.75 471.332031 545.554688 469.347656 C 545.359375 467.363281 545.261719 465.375 545.261719 463.378906 C 545.261719 461.386719 545.359375 459.398438 545.554688 457.414062 C 545.75 455.429688 546.042969 453.460938 546.429688 451.503906 C 546.820312 449.550781 547.304688 447.617188 547.882812 445.710938 C 548.460938 443.804688 549.132812 441.929688 549.894531 440.085938 C 550.65625 438.246094 551.507812 436.445312 552.449219 434.6875 C 553.386719 432.929688 554.410156 431.222656 555.519531 429.5625 C 556.625 427.90625 557.8125 426.304688 559.074219 424.765625 C 560.339844 423.222656 561.675781 421.75 563.085938 420.339844 C 564.496094 418.929688 565.972656 417.59375 567.511719 416.328125 C 569.054688 415.0625 570.652344 413.875 572.308594 412.769531 C 573.96875 411.660156 575.675781 410.636719 577.433594 409.699219 C 579.191406 408.757812 580.988281 407.90625 582.832031 407.144531 C 584.671875 406.382812 586.546875 405.710938 588.457031 405.132812 C 590.363281 404.554688 592.292969 404.070312 594.25 403.679688 C 596.203125 403.292969 598.171875 403 600.15625 402.804688 C 602.140625 402.609375 604.128906 402.511719 606.121094 402.511719 C 608.117188 402.511719 610.105469 402.609375 612.085938 402.804688 C 614.070312 403 616.039062 403.292969 617.996094 403.679688 C 619.949219 404.070312 621.882812 404.554688 623.789062 405.132812 C 625.695312 405.710938 627.570312 406.382812 629.414062 407.144531 C 631.253906 407.90625 633.054688 408.757812 634.8125 409.699219 C 636.570312 410.636719 638.277344 411.660156 639.933594 412.769531 C 641.59375 413.875 643.191406 415.0625 644.730469 416.328125 C 646.273438 417.59375 647.746094 418.929688 649.15625 420.339844 C 650.566406 421.75 651.902344 423.222656 653.167969 424.765625 C 654.433594 426.304688 655.617188 427.90625 656.726562 429.5625 C 657.832031 431.222656 658.855469 432.929688 659.796875 434.6875 C 660.738281 436.445312 661.585938 438.246094 662.351562 440.085938 C 663.113281 441.929688 663.785156 443.804688 664.363281 445.710938 C 664.941406 447.617188 665.425781 449.550781 665.8125 451.503906 C 666.203125 453.460938 666.496094 455.429688 666.691406 457.414062 C 666.886719 459.398438 666.984375 461.386719 666.984375 463.378906 Z M 666.984375 463.378906 " fill-opacity="1" fill-rule="nonzero"/></g><g clip-path="url(#38c699beb9)"><path fill="#fe9900" d="M 296.382812 463.378906 C 296.382812 465.375 296.285156 467.363281 296.089844 469.347656 C 295.894531 471.332031 295.601562 473.300781 295.214844 475.253906 C 294.824219 477.210938 294.339844 479.144531 293.761719 481.050781 C 293.183594 482.957031 292.511719 484.832031 291.75 486.675781 C 290.988281 488.515625 290.136719 490.316406 289.195312 492.074219 C 288.257812 493.832031 287.234375 495.539062 286.125 497.199219 C 285.019531 498.855469 283.832031 500.453125 282.566406 501.996094 C 281.304688 503.539062 279.964844 505.011719 278.558594 506.421875 C 277.148438 507.832031 275.671875 509.167969 274.132812 510.433594 C 272.589844 511.699219 270.992188 512.882812 269.332031 513.992188 C 267.675781 515.101562 265.96875 516.125 264.210938 517.0625 C 262.453125 518.003906 260.652344 518.855469 258.8125 519.617188 C 256.96875 520.378906 255.097656 521.050781 253.1875 521.628906 C 251.28125 522.207031 249.351562 522.691406 247.394531 523.082031 C 245.441406 523.46875 243.46875 523.761719 241.488281 523.957031 C 239.503906 524.152344 237.515625 524.25 235.519531 524.25 C 233.527344 524.25 231.539062 524.152344 229.554688 523.957031 C 227.574219 523.761719 225.601562 523.46875 223.648438 523.082031 C 221.691406 522.691406 219.761719 522.207031 217.855469 521.628906 C 215.945312 521.050781 214.074219 520.378906 212.230469 519.617188 C 210.390625 518.855469 208.589844 518.003906 206.832031 517.0625 C 205.074219 516.125 203.367188 515.101562 201.707031 513.992188 C 200.050781 512.882812 198.453125 511.699219 196.910156 510.433594 C 195.371094 509.167969 193.894531 507.832031 192.484375 506.421875 C 191.078125 505.011719 189.738281 503.539062 188.476562 501.996094 C 187.210938 500.453125 186.023438 498.855469 184.917969 497.199219 C 183.808594 495.539062 182.785156 493.832031 181.847656 492.074219 C 180.90625 490.316406 180.054688 488.515625 179.292969 486.675781 C 178.53125 484.832031 177.859375 482.957031 177.28125 481.050781 C 176.703125 479.144531 176.21875 477.210938 175.828125 475.253906 C 175.441406 473.300781 175.148438 471.332031 174.953125 469.347656 C 174.757812 467.363281 174.660156 465.375 174.660156 463.378906 C 174.660156 461.386719 174.757812 459.398438 174.953125 457.414062 C 175.148438 455.429688 175.441406 453.460938 175.828125 451.503906 C 176.21875 449.550781 176.703125 447.617188 177.28125 445.710938 C 177.859375 443.804688 178.53125 441.929688 179.292969 440.085938 C 180.054688 438.246094 180.90625 436.445312 181.847656 434.6875 C 182.785156 432.929688 183.808594 431.222656 184.917969 429.5625 C 186.023438 427.90625 187.210938 426.304688 188.476562 424.765625 C 189.738281 423.222656 191.078125 421.75 192.484375 420.339844 C 193.894531 418.929688 195.371094 417.59375 196.910156 416.328125 C 198.453125 415.0625 200.050781 413.875 201.707031 412.769531 C 203.367188 411.660156 205.074219 410.636719 206.832031 409.699219 C 208.589844 408.757812 210.390625 407.90625 212.230469 407.144531 C 214.074219 406.382812 215.945312 405.710938 217.855469 405.132812 C 219.761719 404.554688 221.691406 404.070312 223.648438 403.679688 C 225.601562 403.292969 227.574219 403 229.554688 402.804688 C 231.539062 402.609375 233.527344 402.511719 235.519531 402.511719 C 237.515625 402.511719 239.503906 402.609375 241.488281 402.804688 C 243.46875 403 245.441406 403.292969 247.394531 403.679688 C 249.351562 404.070312 251.28125 404.554688 253.1875 405.132812 C 255.097656 405.710938 256.96875 406.382812 258.8125 407.144531 C 260.652344 407.90625 262.453125 408.757812 264.210938 409.699219 C 265.96875 410.636719 267.675781 411.660156 269.332031 412.769531 C 270.992188 413.875 272.589844 415.0625 274.132812 416.328125 C 275.671875 417.59375 277.148438 418.929688 278.558594 420.339844 C 279.964844 421.75 281.304688 423.222656 282.566406 424.765625 C 283.832031 426.304688 285.019531 427.90625 286.125 429.5625 C 287.234375 431.222656 288.257812 432.929688 289.195312 434.6875 C 290.136719 436.445312 290.988281 438.246094 291.75 440.085938 C 292.511719 441.929688 293.183594 443.804688 293.761719 445.710938 C 294.339844 447.617188 294.824219 449.550781 295.214844 451.503906 C 295.601562 453.460938 295.894531 455.429688 296.089844 457.414062 C 296.285156 459.398438 296.382812 461.386719 296.382812 463.378906 Z M 296.382812 463.378906 " fill-opacity="1" fill-rule="nonzero"/></g><path fill="#000000" d="M 209.941406 252.519531 C 211.320312 246.285156 215.988281 240.886719 222.496094 239.511719 C 227.253906 238.464844 232.199219 239.488281 236.375 241.34375 C 243.832031 244.617188 249.441406 250.253906 254.554688 256.382812 C 251.335938 256.851562 248.113281 256.359375 244.992188 255.933594 C 241.984375 255.464844 239.128906 254.90625 236.445312 254.410156 C 234.199219 254.046875 231.78125 253.5625 229.46875 253.480469 C 231.492188 255.179688 233.507812 256.867188 235.570312 258.519531 C 243.300781 264.828125 251.226562 270.695312 259.5 275.957031 C 271.367188 283.398438 283.824219 289.285156 296.859375 294.234375 C 310.664062 299.519531 323.898438 300.960938 338.640625 299.597656 C 374.242188 297.210938 406.777344 281.019531 433.230469 257.496094 C 434.511719 256.503906 435.832031 258.054688 435.027344 259.179688 C 431.8125 263.332031 428.347656 267.296875 424.746094 271.160156 C 413.703125 282.796875 401.175781 292.800781 387.117188 300.828125 C 358.273438 317.136719 323.183594 324.015625 290.347656 317.710938 C 264.953125 312.644531 243.203125 294.867188 230.449219 272.722656 C 227.5625 267.660156 225.066406 262.355469 223.238281 256.824219 C 222.308594 258.890625 221.726562 261.546875 221.269531 263.351562 C 220.367188 267.332031 219.566406 271.902344 218.519531 276.085938 C 218.144531 277.597656 217.738281 279.140625 217.152344 280.71875 C 216.109375 279.402344 215.242188 278.058594 214.445312 276.671875 C 210.375 269.316406 208.070312 261.203125 209.941406 252.523438 Z M 209.941406 252.519531 " fill-opacity="1" fill-rule="nonzero"/><path fill="#000000" d="M 290.441406 186.652344 C 290.441406 187.875 290.414062 189.09375 290.355469 190.3125 C 290.296875 191.527344 290.207031 192.738281 290.089844 193.9375 C 289.972656 195.136719 289.828125 196.320312 289.652344 197.492188 C 289.476562 198.660156 289.277344 199.8125 289.046875 200.941406 C 288.816406 202.070312 288.558594 203.175781 288.277344 204.253906 C 287.992188 205.332031 287.683594 206.378906 287.351562 207.398438 C 287.015625 208.414062 286.660156 209.394531 286.277344 210.339844 C 285.894531 211.285156 285.492188 212.191406 285.066406 213.054688 C 284.644531 213.921875 284.199219 214.742188 283.734375 215.515625 C 283.269531 216.292969 282.785156 217.019531 282.285156 217.699219 C 281.789062 218.378906 281.273438 219.007812 280.742188 219.582031 C 280.210938 220.160156 279.667969 220.683594 279.113281 221.152344 C 278.558594 221.617188 277.992188 222.03125 277.417969 222.386719 C 276.84375 222.738281 276.261719 223.035156 275.671875 223.277344 C 275.082031 223.515625 274.488281 223.691406 273.890625 223.8125 C 273.292969 223.933594 272.691406 223.992188 272.09375 223.992188 C 271.492188 223.992188 270.890625 223.933594 270.292969 223.8125 C 269.695312 223.691406 269.101562 223.515625 268.511719 223.277344 C 267.921875 223.035156 267.339844 222.738281 266.765625 222.386719 C 266.191406 222.03125 265.625 221.617188 265.070312 221.152344 C 264.515625 220.683594 263.972656 220.160156 263.441406 219.582031 C 262.910156 219.007812 262.398438 218.378906 261.898438 217.699219 C 261.398438 217.019531 260.914062 216.292969 260.449219 215.515625 C 259.984375 214.742188 259.542969 213.921875 259.117188 213.054688 C 258.691406 212.191406 258.289062 211.285156 257.90625 210.339844 C 257.527344 209.394531 257.167969 208.414062 256.835938 207.398438 C 256.5 206.378906 256.191406 205.332031 255.910156 204.253906 C 255.625 203.175781 255.367188 202.070312 255.136719 200.941406 C 254.910156 199.8125 254.707031 198.660156 254.53125 197.492188 C 254.359375 196.320312 254.210938 195.136719 254.09375 193.9375 C 253.976562 192.738281 253.890625 191.527344 253.832031 190.3125 C 253.769531 189.09375 253.742188 187.875 253.742188 186.652344 C 253.742188 185.429688 253.769531 184.207031 253.832031 182.992188 C 253.890625 181.773438 253.976562 180.566406 254.09375 179.367188 C 254.210938 178.167969 254.359375 176.980469 254.53125 175.8125 C 254.707031 174.640625 254.910156 173.492188 255.136719 172.359375 C 255.367188 171.230469 255.625 170.128906 255.910156 169.046875 C 256.191406 167.96875 256.5 166.921875 256.835938 165.90625 C 257.167969 164.886719 257.527344 163.90625 257.90625 162.960938 C 258.289062 162.015625 258.691406 161.113281 259.117188 160.246094 C 259.542969 159.382812 259.984375 158.5625 260.449219 157.785156 C 260.914062 157.011719 261.398438 156.28125 261.898438 155.601562 C 262.398438 154.921875 262.910156 154.296875 263.441406 153.71875 C 263.972656 153.140625 264.515625 152.621094 265.070312 152.152344 C 265.625 151.683594 266.191406 151.273438 266.765625 150.917969 C 267.339844 150.5625 267.921875 150.265625 268.511719 150.027344 C 269.101562 149.789062 269.695312 149.609375 270.292969 149.488281 C 270.890625 149.371094 271.492188 149.308594 272.09375 149.308594 C 272.691406 149.308594 273.292969 149.371094 273.890625 149.488281 C 274.488281 149.609375 275.082031 149.789062 275.671875 150.027344 C 276.261719 150.265625 276.84375 150.5625 277.417969 150.917969 C 277.992188 151.273438 278.558594 151.683594 279.113281 152.152344 C 279.667969 152.621094 280.210938 153.140625 280.742188 153.71875 C 281.273438 154.296875 281.789062 154.921875 282.285156 155.601562 C 282.785156 156.28125 283.269531 157.011719 283.734375 157.785156 C 284.199219 158.5625 284.644531 159.382812 285.066406 160.246094 C 285.492188 161.113281 285.894531 162.015625 286.277344 162.960938 C 286.660156 163.90625 287.015625 164.886719 287.351562 165.90625 C 287.683594 166.921875 287.992188 167.96875 288.277344 169.046875 C 288.558594 170.128906 288.816406 171.230469 289.046875 172.359375 C 289.277344 173.492188 289.476562 174.640625 289.652344 175.8125 C 289.828125 176.980469 289.972656 178.167969 290.089844 179.367188 C 290.207031 180.566406 290.296875 181.773438 290.355469 182.992188 C 290.414062 184.207031 290.441406 185.429688 290.441406 186.652344 Z M 290.441406 186.652344 " fill-opacity="1" fill-rule="nonzero"/><path fill="#000000" d="M 390.8125 186.652344 C 390.8125 187.875 390.785156 189.09375 390.726562 190.3125 C 390.667969 191.527344 390.578125 192.738281 390.460938 193.9375 C 390.34375 195.136719 390.199219 196.320312 390.023438 197.492188 C 389.847656 198.660156 389.648438 199.8125 389.417969 200.941406 C 389.1875 202.070312 388.929688 203.175781 388.648438 204.253906 C 388.363281 205.332031 388.054688 206.378906 387.722656 207.398438 C 387.386719 208.414062 387.027344 209.394531 386.648438 210.339844 C 386.265625 211.285156 385.863281 212.191406 385.4375 213.054688 C 385.015625 213.921875 384.570312 214.742188 384.105469 215.515625 C 383.640625 216.292969 383.15625 217.019531 382.65625 217.699219 C 382.160156 218.378906 381.644531 219.007812 381.113281 219.582031 C 380.582031 220.160156 380.039062 220.683594 379.484375 221.152344 C 378.929688 221.617188 378.363281 222.03125 377.789062 222.386719 C 377.214844 222.738281 376.632812 223.035156 376.042969 223.277344 C 375.453125 223.515625 374.859375 223.691406 374.261719 223.8125 C 373.664062 223.933594 373.0625 223.992188 372.464844 223.992188 C 371.863281 223.992188 371.261719 223.933594 370.664062 223.8125 C 370.066406 223.691406 369.472656 223.515625 368.882812 223.277344 C 368.292969 223.035156 367.710938 222.738281 367.136719 222.386719 C 366.5625 222.03125 365.996094 221.617188 365.441406 221.152344 C 364.886719 220.683594 364.34375 220.160156 363.8125 219.582031 C 363.28125 219.007812 362.769531 218.378906 362.269531 217.699219 C 361.769531 217.019531 361.285156 216.292969 360.820312 215.515625 C 360.355469 214.742188 359.914062 213.921875 359.488281 213.054688 C 359.0625 212.191406 358.660156 211.285156 358.277344 210.339844 C 357.898438 209.394531 357.539062 208.414062 357.207031 207.398438 C 356.871094 206.378906 356.5625 205.332031 356.28125 204.253906 C 355.996094 203.175781 355.738281 202.070312 355.507812 200.941406 C 355.28125 199.8125 355.078125 198.660156 354.902344 197.492188 C 354.730469 196.320312 354.582031 195.136719 354.464844 193.9375 C 354.347656 192.738281 354.261719 191.527344 354.203125 190.3125 C 354.140625 189.09375 354.113281 187.875 354.113281 186.652344 C 354.113281 185.429688 354.140625 184.207031 354.203125 182.992188 C 354.261719 181.773438 354.347656 180.566406 354.464844 179.367188 C 354.582031 178.167969 354.730469 176.980469 354.902344 175.8125 C 355.078125 174.640625 355.28125 173.492188 355.507812 172.359375 C 355.738281 171.230469 355.996094 170.128906 356.28125 169.046875 C 356.5625 167.96875 356.871094 166.921875 357.207031 165.90625 C 357.539062 164.886719 357.898438 163.90625 358.277344 162.960938 C 358.660156 162.015625 359.0625 161.113281 359.488281 160.246094 C 359.914062 159.382812 360.355469 158.5625 360.820312 157.785156 C 361.285156 157.011719 361.769531 156.28125 362.269531 155.601562 C 362.769531 154.921875 363.28125 154.296875 363.8125 153.71875 C 364.34375 153.140625 364.886719 152.621094 365.441406 152.152344 C 365.996094 151.683594 366.5625 151.273438 367.136719 150.917969 C 367.710938 150.5625 368.292969 150.265625 368.882812 150.027344 C 369.472656 149.789062 370.066406 149.609375 370.664062 149.488281 C 371.261719 149.371094 371.863281 149.308594 372.464844 149.308594 C 373.0625 149.308594 373.664062 149.371094 374.261719 149.488281 C 374.859375 149.609375 375.453125 149.789062 376.042969 150.027344 C 376.632812 150.265625 377.214844 150.5625 377.789062 150.917969 C 378.363281 151.273438 378.929688 151.683594 379.484375 152.152344 C 380.039062 152.621094 380.582031 153.140625 381.113281 153.71875 C 381.644531 154.296875 382.160156 154.921875 382.65625 155.601562 C 383.15625 156.28125 383.640625 157.011719 384.105469 157.785156 C 384.570312 158.5625 385.015625 159.382812 385.4375 160.246094 C 385.863281 161.113281 386.265625 162.015625 386.648438 162.960938 C 387.027344 163.90625 387.386719 164.886719 387.722656 165.90625 C 388.054688 166.921875 388.363281 167.96875 388.648438 169.046875 C 388.929688 170.128906 389.1875 171.230469 389.417969 172.359375 C 389.648438 173.492188 389.847656 174.640625 390.023438 175.8125 C 390.199219 176.980469 390.34375 178.167969 390.460938 179.367188 C 390.578125 180.566406 390.667969 181.773438 390.726562 182.992188 C 390.785156 184.207031 390.8125 185.429688 390.8125 186.652344 Z M 390.8125 186.652344 " fill-opacity="1" fill-rule="nonzero"/></svg>